# xmcd
#
# Track frame offsets:
#	150
#	12934
#	24936
#	44598
#	60759
#	71770
#	85811
#	97463
#	116200
#	128013
#	144641
#	157249
#
# Disc length: 2277 seconds
#
# Revision: 0
# Processed by: cddbd v1.5.1PL2 Copyright (c) Steve Scherf et al.
# Submitted via: EasyCDDAExtractor 9.0.0.1
#
DISCID=a808e30c
DTITLE=Tom Morrell and The Timewarp Tophands - How The West Was Swung, Vol.13 (M
DTITLE=onkey Bizness)
DYEAR=1900
DGENRE=Country
TTITLE0=Bound To Look Like A Monkey
TTITLE1=Swing On A Star
TTITLE2=Fly Me To the Moon
TTITLE3=Million Miles From Your Heart
TTITLE4=Take Another Guess
TTITLE5=Awake But Dreaming
TTITLE6=Cielito Lindo
TTITLE7=I'll Be Lucky Someday
TTITLE8=Spurs That Jingle, Jangle, Jingle
TTITLE9=Kentucky Medley
TTITLE10=Snatchin' And Grabbin'
TTITLE11=Gold In My Pocket
EXTD=
EXTT0=
EXTT1=
EXTT2=
EXTT3=
EXTT4=
EXTT5=
EXTT6=
EXTT7=
EXTT8=
EXTT9=
EXTT10=
EXTT11=
PLAYORDER=
